<?xml version="1.0" encoding="UTF-8" standalone="no"?><svg xmlns="http://www.w3.org/2000/svg" width="135" height="40" viewBox="0 0 135 40"><rect width="100%" height="100%" rx="7" /><path fill="#fff" d="M28.9 19.2c0-1.8 1-3.5 2.5-4.5a5.4 5.4 0 00-4.3-2.3c-1.8-.2-3.6 1.1-4.5 1.1s-2.4-1.1-3.9-1c-2 .1-3.9 1.2-4.8 2.9-2.1 3.6-.5 8.9 1.5 11.9 1 1.4 2.2 3 3.7 3 1.5-.1 2.1-1 3.9-1s2.3 1 3.9.9c1.6 0 2.6-1.4 3.6-2.9.7-1 1.3-2.1 1.6-3.3a5.3 5.3 0 01-3.2-4.8zM26 10.5a5.3 5.3 0 001.2-3.8c-1.3.1-2.6.8-3.5 1.8-.9 1-1.3 2.3-1.2 3.6 1.3.1 2.6-.5 3.5-1.6zm23.9 16.1h-5.1l-1.2 3.6h-2.2l4.8-13.4h2.3l4.8 13.4h-2.2l-1.2-3.6zM45.3 25h4.1l-2-5.9h-.1l-2 5.9zm18.5.4c0 3-1.6 5-4.1 5-1.3.1-2.5-.6-3.1-1.7v4.8h-2v-13h1.9v1.6a3.3 3.3 0 013.1-1.7c2.5 0 4.2 1.9 4.2 5zm-2.1 0c0-2-1-3.3-2.6-3.3-1.5 0-2.6 1.3-2.6 3.3s1 3.3 2.6 3.3 2.6-1.3 2.6-3.3zm12.8 0c0 3-1.6 5-4.1 5-1.3.1-2.5-.6-3.1-1.7v4.8h-2v-13h1.9v1.6a3.3 3.3 0 013.1-1.7c2.6 0 4.2 1.9 4.2 5zm-2 0c0-2-1-3.3-2.6-3.3-1.5 0-2.6 1.3-2.6 3.3s1 3.3 2.6 3.3c1.5 0 2.6-1.3 2.6-3.3zm9.1 1.1c.1 1.3 1.4 2.2 3.2 2.2 1.7 0 2.9-.9 2.9-2.1 0-1-.7-1.7-2.5-2.1l-1.7-.4c-2.5-.6-3.6-1.7-3.6-3.6 0-2.3 2-3.9 4.9-3.9 2.8 0 4.8 1.6 4.8 3.9h-2c-.1-1.3-1.2-2.1-2.8-2.1-1.6 0-2.7.8-2.7 2 0 .9.7 1.5 2.4 1.9l1.5.4c2.8.7 3.9 1.8 3.9 3.7 0 2.5-2 4.1-5.2 4.1-3 0-5-1.5-5.1-4h2zm12.6-8.3v2.3h1.9v1.6h-1.9v5.4c0 .8.4 1.2 1.2 1.2h.7v1.6l-1.1.1c-2 0-2.8-.7-2.8-2.6v-5.6h-1.4v-1.6h1.4v-2.3l2-.1zm2.9 7.2c0-3.1 1.8-5 4.6-5s4.6 1.9 4.6 5-1.8 5-4.6 5-4.6-1.9-4.6-5zm7.3 0c0-2.1-1-3.4-2.6-3.4s-2.6 1.3-2.6 3.4 1 3.4 2.6 3.4 2.6-1.3 2.6-3.4zm3.7-4.9h1.9v1.7a2.4 2.4 0 012.4-1.8l.7.1v1.9l-.9-.1c-1.1 0-2.1.8-2.1 1.9v6.1h-2v-9.8zm14.2 6.9c-.3 1.8-2 3-4.2 3-2.8 0-4.6-1.9-4.6-5s1.8-5.1 4.5-5.1 4.4 1.9 4.4 4.8v.7h-6.9v.2c-.1 1.4.9 2.6 2.3 2.8h.3c1 .1 1.9-.5 2.3-1.4h1.9zm-6.8-2.9h4.9c.1-1.3-.9-2.4-2.2-2.5h-.2a2.5 2.5 0 00-2.5 2.5zM45.1 13c1.9 0 3-1.2 3-3.2s-1.1-3.2-3-3.2h-2.3V13h2.3zm-.1-.8h-1.2V7.5H45c1.3 0 2.1.9 2.1 2.3 0 1.5-.8 2.4-2.1 2.4zm6.3.9c1.4 0 2.3-.9 2.3-2.5s-.9-2.5-2.3-2.5S49 9 49 10.6c.1 1.6.9 2.5 2.3 2.5zm0-.8c-.8 0-1.3-.6-1.3-1.7s.5-1.7 1.3-1.7 1.3.6 1.3 1.7-.5 1.7-1.3 1.7zm5.3.7l1-3.6h.1l1 3.6h1L61 8.2h-1l-.9 3.7H59l-1-3.7h-.9l-1 3.7H56l-.9-3.7h-1l1.3 4.8h1.2zm6.3 0v-2.8c0-.8.4-1.2 1.1-1.2s1 .4 1 1.2V13h1V9.9c0-1.1-.6-1.8-1.7-1.8-.7 0-1.2.3-1.4.8h-.1v-.7h-.9V13h1zm5.4 0V6.4h-.9V13h.9zm3.4.1c1.4 0 2.3-.9 2.3-2.5s-.9-2.5-2.3-2.5-2.3.9-2.3 2.5c.1 1.6.9 2.5 2.3 2.5zm0-.8c-.8 0-1.3-.6-1.3-1.7s.5-1.7 1.3-1.7 1.3.6 1.3 1.7-.5 1.7-1.3 1.7zm4.7.8c.6 0 1.2-.3 1.4-.8h.1v.7h.9V9.7c0-1-.7-1.6-1.9-1.6-1.1 0-1.9.5-2 1.3h.9c.1-.3.5-.5 1-.5.6 0 1 .3 1 .8v.4l-1.3.1c-1.1.1-1.8.6-1.8 1.4.1.9.8 1.5 1.7 1.5zm.3-.8c-.5 0-.9-.3-.9-.7 0-.4.3-.7 1-.7l1.2-.1v.4c-.1.7-.6 1.1-1.3 1.1zm5.3.8c.7 0 1.2-.3 1.5-.8h.1v.7h.9V6.4h-.9V9h-.1c-.3-.5-.8-.8-1.5-.8-1.2 0-2 1-2 2.5 0 1.4.7 2.4 2 2.4zm.2-.8c-.8 0-1.3-.6-1.3-1.7 0-1 .5-1.7 1.3-1.7s1.3.6 1.3 1.7c0 1-.5 1.7-1.3 1.7zm8.1.8c1.4 0 2.3-.9 2.3-2.5s-.9-2.5-2.3-2.5S88 9 88 10.6c.1 1.6.9 2.5 2.3 2.5zm0-.8c-.8 0-1.3-.6-1.3-1.7s.5-1.7 1.3-1.7 1.3.6 1.3 1.7-.5 1.7-1.3 1.7zm4.4.7v-2.8c0-.8.4-1.2 1.1-1.2s1 .4 1 1.2V13h.9V9.9c0-1.1-.6-1.8-1.7-1.8-.7 0-1.2.3-1.4.8h-.1v-.7h-.9V13h1.1zm8.7 0h.5v-.8h-.4c-.5 0-.7-.2-.7-.7V9h1v-.8h-1V7h-.9v1.2h-.8V9h.8v2.7c0 1 .4 1.3 1.5 1.3zm2.6 0v-2.8c0-.7.4-1.2 1.2-1.2.7 0 1 .4 1 1.2V13h.9V9.9c0-1.1-.6-1.8-1.6-1.8-.7 0-1.2.3-1.5.8V6.4h-1V13h1zm6.5.1c1.1 0 1.9-.5 2.1-1.4h-.9c-.2.4-.6.6-1.1.6-.8 0-1.2-.5-1.3-1.4h3.4v-.3c0-1.5-.8-2.4-2.1-2.4s-2.2 1-2.2 2.5c-.1 1.4.7 2.4 2.1 2.4zm1.1-2.9h-2.4c.1-.8.5-1.3 1.2-1.3s1.2.5 1.2 1.3z" /></svg>
