<?xml version="1.0" encoding="UTF-8" standalone="no"?><svg viewBox="0 0 108 32" fill="none" height="32" width="108" xmlns="http://www.w3.org/2000/svg">
  <g clip-path="url(#a)">
    <path d="M104 0H4A4 4 0 0 0 0 4V28A4 4 0 0 0 4 32H104A4 4 0 0 0 108 28V4A4 4 0 0 0 104 0Z" fill="black"></path>
    <path d="M16.576 15.536 8.056 24.576A2.302 2.302 0 0 0 11.448 25.96L11.472 25.944 21.056 20.416 16.568 15.528 16.576 15.536Z" fill="#D65532"></path>
    <path d="M25.192 14H25.184L21.048 11.592 16.384 15.744 21.064 20.424 25.184 18.048A2.305 2.305 0 0 0 26.392 16.024C26.392 15.152 25.912 14.392 25.192 14.008V14Z" fill="#FFCB31"></path>
    <path d="M8.056 7.424C8.008 7.616 7.976 7.808 7.976 8.016V23.984C7.976 24.192 8 24.384 8.056 24.576L16.864 15.768 8.056 7.424Z" fill="#0074BB"></path>
    <path d="M16.64 16 21.048 11.592 11.472 6.04A2.31 2.31 0 0 0 8.056 7.416L16.64 15.992V16Z" fill="#00A076"></path>
    <path d="M37.936 8.192C37.936 8.864 37.736 9.4 37.336 9.792 36.888 10.264 36.296 10.504 35.576 10.504S34.296 10.264 33.808 9.784 33.08 8.704 33.08 8 33.32 6.696 33.808 6.216A2.42 2.42 0 0 1 35.576 5.496C35.92 5.496 36.248 5.56 36.56 5.696 36.872 5.832 37.12 6.008 37.312 6.232L36.888 6.656C36.568 6.28 36.136 6.088 35.576 6.088 35.072 6.088 34.632 6.264 34.264 6.624 33.896 6.976 33.712 7.44 33.712 8.008S33.896 9.04 34.264 9.392C34.632 9.744 35.072 9.928 35.576 9.928 36.112 9.928 36.56 9.752 36.92 9.392 37.152 9.16 37.288 8.832 37.32 8.416H35.576V7.84H37.904C37.928 7.968 37.936 8.088 37.936 8.2V8.192ZM41.624 6.184H39.44V7.704H41.408V8.28H39.44V9.8H41.624V10.392H38.824V5.6H41.624V6.192 6.184ZM44.224 10.392H43.608V6.192H42.264V5.6H45.56V6.192H44.216V10.4L44.224 10.392ZM47.952 10.392V5.6H48.568V10.4H47.952V10.392ZM51.304 10.392H50.688V6.192H49.344V5.6H52.64V6.192H51.296V10.4L51.304 10.392ZM58.888 9.768C58.416 10.256 57.832 10.496 57.128 10.496S55.84 10.256 55.368 9.768 54.664 8.688 54.664 7.992 54.896 6.696 55.368 6.216C55.84 5.728 56.424 5.488 57.128 5.488S58.408 5.728 58.888 6.216C59.36 6.704 59.6 7.296 59.6 7.992S59.36 9.288 58.896 9.768H58.888ZM55.824 9.368C56.176 9.728 56.616 9.904 57.128 9.904S58.08 9.728 58.432 9.368C58.784 9.008 58.968 8.552 58.968 7.992 58.968 7.432 58.792 6.976 58.432 6.616A1.756 1.756 0 0 0 57.128 6.08C56.616 6.08 56.176 6.256 55.824 6.616 55.472 6.976 55.288 7.432 55.288 7.992 55.288 8.552 55.464 9.008 55.824 9.368ZM60.464 10.392V5.6H61.216L63.552 9.336H63.576L63.552 8.408V5.6H64.168V10.4H63.528L61.088 6.488H61.064L61.088 7.416V10.408H60.472L60.464 10.392ZM54.512 17.392C52.632 17.392 51.096 18.824 51.096 20.792S52.632 24.192 54.512 24.192 57.928 22.752 57.928 20.792 56.392 17.392 54.512 17.392ZM54.512 22.856C53.48 22.856 52.592 22.008 52.592 20.792 52.592 19.576 53.48 18.728 54.512 18.728S56.432 19.568 56.432 20.792C56.432 22.016 55.544 22.856 54.512 22.856ZM47.064 17.392C45.184 17.392 43.648 18.824 43.648 20.792S45.184 24.192 47.064 24.192 50.48 22.752 50.48 20.792 48.944 17.392 47.064 17.392ZM47.064 22.856C46.032 22.856 45.144 22.008 45.144 20.792 45.144 19.576 46.032 18.728 47.064 18.728S48.984 19.568 48.984 20.792C48.984 22.016 48.096 22.856 47.064 22.856ZM38.2 18.432V19.872H41.656C41.552 20.68 41.28 21.28 40.872 21.688 40.368 22.192 39.584 22.744 38.208 22.744 36.08 22.744 34.416 21.032 34.416 18.904S36.08 15.064 38.208 15.064C39.352 15.064 40.192 15.512 40.808 16.096L41.824 15.08C40.96 14.256 39.816 13.624 38.2 13.624 35.288 13.624 32.84 15.992 32.84 18.912 32.84 21.832 35.288 24.2 38.2 24.2 39.776 24.2 40.96 23.688 41.888 22.72 42.84 21.768 43.136 20.424 43.136 19.344 43.136 19.008 43.112 18.696 43.056 18.44H38.2V18.432ZM74.448 19.552C74.168 18.792 73.304 17.384 71.536 17.384S68.328 18.76 68.328 20.784C68.328 22.688 69.768 24.184 71.704 24.184 73.264 24.184 74.168 23.232 74.536 22.68L73.376 21.904C72.992 22.472 72.464 22.848 71.704 22.848 70.944 22.848 70.4 22.504 70.056 21.816L74.608 19.936 74.456 19.552H74.448ZM69.808 20.688C69.768 19.376 70.824 18.704 71.584 18.704 72.176 18.704 72.68 19 72.848 19.424L69.808 20.688ZM66.112 23.984H67.608V13.984H66.112V23.984ZM63.664 18.144H63.616C63.28 17.744 62.64 17.384 61.824 17.384 60.12 17.384 58.56 18.88 58.56 20.8S60.12 24.192 61.824 24.192C62.64 24.192 63.28 23.832 63.616 23.416H63.664V23.904C63.664 25.208 62.968 25.904 61.848 25.904 60.936 25.904 60.368 25.248 60.136 24.696L58.832 25.24C59.208 26.144 60.2 27.248 61.848 27.248 63.6 27.248 65.08 26.216 65.08 23.704V17.592H63.664V18.144ZM61.952 22.848C60.92 22.848 60.056 21.984 60.056 20.8 60.056 19.616 60.92 18.728 61.952 18.728S63.768 19.608 63.768 20.8C63.768 21.992 62.968 22.848 61.952 22.848ZM81.456 13.984H77.88V23.984H79.376V20.192H81.464C83.12 20.192 84.744 18.992 84.744 17.088 84.744 15.184 83.12 13.984 81.464 13.984H81.456ZM81.496 18.808H79.376V15.376H81.496C82.616 15.376 83.248 16.304 83.248 17.088 83.248 17.872 82.616 18.8 81.496 18.8V18.808ZM90.72 17.368C89.64 17.368 88.52 17.848 88.056 18.896L89.384 19.448C89.664 18.896 90.192 18.712 90.744 18.712 91.512 18.712 92.304 19.176 92.312 20V20.104A3.341 3.341 0 0 0 90.752 19.72C89.32 19.72 87.872 20.504 87.872 21.968 87.872 23.304 89.04 24.168 90.352 24.168 91.352 24.168 91.912 23.72 92.256 23.192H92.304V23.968H93.744V20.136C93.744 18.36 92.416 17.368 90.704 17.368H90.72ZM90.536 22.848C90.048 22.848 89.368 22.6 89.368 22 89.368 21.232 90.216 20.936 90.952 20.936 91.608 20.936 91.92 21.08 92.312 21.272A1.806 1.806 0 0 1 90.536 22.856V22.848ZM99 17.584 97.288 21.92H97.24L95.464 17.584H93.856L96.52 23.648 95 27.016H96.56L100.664 17.584H99ZM85.552 23.984H87.048V13.984H85.552V23.984Z" stroke-width=".2" stroke-miterlimit="10" stroke="#fff" fill="#fff"></path>
  </g>
  <defs>
    <clipPath id="a">
      <path d="M0 0H108V32H0z" fill="#fff"></path>
    </clipPath>
  </defs>
</svg>