<?xml version="1.0" encoding="UTF-8" standalone="no"?><svg xmlns="http://www.w3.org/2000/svg" fill="none" height="43" viewBox="0 0 203 43" width="203">
<path d="M114.711 32.4734C118.206 32.4616 121.542 30.9508 123.628 28.1018C125.071 26.1307 125.748 23.6431 125.748 21.2206C125.748 18.798 125.071 16.3119 123.628 14.3393C121.542 11.4918 118.204 9.98104 114.711 9.96924C111.212 9.98104 107.884 11.4918 105.792 14.3393C104.352 16.3119 103.669 18.7994 103.669 21.2206C103.669 23.6417 104.352 26.1307 105.792 28.1018C107.884 30.9508 111.214 32.4601 114.711 32.4734ZM109.322 18.6372C110.129 16.219 112.05 14.2862 114.711 14.273C117.368 14.2862 119.29 16.2175 120.103 18.6372C120.358 19.4073 120.531 20.3457 120.531 21.222C120.531 22.0984 120.358 23.0368 120.103 23.8069C119.29 26.2251 117.368 28.1578 114.711 28.1711C112.05 28.1564 110.129 26.2251 109.322 23.8069C109.066 23.0368 108.895 22.094 108.895 21.222C108.895 20.3501 109.067 19.4073 109.322 18.6372Z" fill="#FF5A00"/>
<path d="M34.5585 32.5559H38.2632C38.6144 32.5559 38.905 32.2653 38.905 31.9141V1.46357C38.905 1.11095 38.6159 0.821777 38.2632 0.821777H34.5585C34.2015 0.821777 33.9182 1.11095 33.9182 1.46357V31.9141C33.9182 32.2653 34.2015 32.5559 34.5585 32.5559Z" fill="#FF5A00"/>
<path d="M25.8552 32.5559H29.5629C29.9111 32.5559 30.2002 32.2653 30.2002 31.9141V1.46357C30.2002 1.11095 29.9111 0.821777 29.5629 0.821777H25.8552C25.5011 0.821777 25.2164 1.11095 25.2164 1.46357V31.9141C25.2164 32.2653 25.5011 32.5559 25.8552 32.5559Z" fill="#FF5A00"/>
<path d="M90.852 32.5559H94.5567C94.9138 32.5559 95.2 32.2653 95.2 31.9141L95.2044 19.484C95.2044 15.6126 97.776 13.7521 101.965 14.6152C102.471 14.7199 102.848 14.4559 102.841 13.879V11.2808C102.841 10.6184 102.778 10.3558 102.289 10.2156H102.286C101.602 10.0356 100.12 9.96772 99.7176 9.97067C97.0236 9.97067 94.6039 11.0551 92.9441 12.7031C91.7254 13.9203 90.2161 15.8294 90.2161 19.1564V31.9156C90.2161 32.2668 90.5053 32.5574 90.855 32.5574" fill="#FF5A00"/>
<path d="M75.9447 32.4733C78.233 32.4645 80.4535 31.8124 82.2977 30.5642V33.2848C82.2977 36.9807 79.0651 37.6505 76.9981 37.7789C75.6112 37.863 73.6372 37.6756 72.749 37.5413C72.1824 37.4602 71.7826 37.5561 71.7826 38.1492V41.426C71.7723 41.668 71.9685 41.9276 72.3683 41.9616C77.1648 42.3747 80.3989 42.2862 82.8318 40.9052C84.5624 39.9226 85.7486 38.2982 86.3727 36.4023C86.8286 35.0376 86.985 33.3601 86.985 31.9038V21.222C86.985 18.7685 86.3299 16.3532 84.8619 14.3408C82.7757 11.4918 79.4413 9.98251 75.9447 9.9707C72.448 9.98251 69.1151 11.4918 67.0245 14.3408C64.1711 18.2417 64.1681 24.1994 67.0245 28.1032C69.1151 30.9522 72.448 32.4615 75.9447 32.4748M70.5595 18.6371C71.3621 16.219 73.2875 14.2729 75.9447 14.2729C81.8993 14.2729 82.0985 20.3471 82.0985 21.222C82.0985 22.0969 81.8993 28.1711 75.9447 28.1711C73.286 28.1711 71.3621 26.2251 70.5595 23.8054C70.2969 23.0368 70.1257 22.094 70.1257 21.222C70.1257 20.3501 70.2969 19.4073 70.5595 18.6371Z" fill="#FF5A00"/>
<path d="M52.8047 32.4733C56.3589 32.6076 58.7372 31.9938 60.5165 30.9655C60.8677 30.7648 60.9429 30.5214 60.9429 29.8766V27.0026C60.9429 26.4124 60.5903 26.1454 60.0414 26.495C58.122 27.7181 55.81 28.4662 52.8681 28.233C49.9055 28.0014 47.4608 25.9241 47.2262 22.9866H61.8547C62.1778 22.9866 62.4345 22.7446 62.4522 22.392C62.6957 18.3892 61.5449 9.9751 52.5406 9.9751C45.9559 9.9751 43.1069 14.3983 42.145 18.134C41.8897 19.1255 41.7673 20.1951 41.7673 21.2205C41.7673 23.6416 42.4445 26.1306 43.8859 28.1017C45.9736 30.9507 49.3124 32.342 52.8047 32.4733ZM52.5406 14.2788C54.6976 14.2788 57.2308 15.5122 57.2308 19.0281H47.269C47.269 17.3904 48.6337 14.2788 52.5406 14.2788Z" fill="#FF5A00"/>
<path d="M4.5432 30.9109C5.96105 32.0292 7.89381 32.5574 10.2943 32.5574H12.0382L21.1959 32.5559C21.55 32.5559 21.8348 32.2653 21.8348 31.9141L21.8303 25.6069L21.8259 18.9927C21.8259 16.0508 21.1708 13.7919 19.7604 12.2826C18.2938 10.7157 15.5053 9.9751 12.8792 9.9751C10.253 9.9751 7.56775 10.6508 5.33401 11.9772C5.18942 12.0643 5.10238 12.2206 5.10238 12.3874V12.4154L5.30155 15.6583C5.33401 16.0965 5.8504 16.2396 6.2458 15.9917C9.47691 13.9837 13.3542 13.6134 15.3165 14.599C16.696 15.2954 17.0634 16.7619 17.0634 17.7106V18.1842H11.6634C9.34855 18.1842 2.2475 19.0074 2.2475 25.5685V25.6777C2.2475 27.9173 3.01765 29.7232 4.54468 30.9109M11.9526 22.1367H17.0619V28.5488H10.6144C9.76166 28.4942 9.01216 28.2744 8.32905 27.7476C7.59431 27.1781 7.25645 26.5083 7.25054 25.6305C7.25054 25.6231 7.25054 25.6157 7.25054 25.6083C7.2712 24.4413 8.05758 22.1367 11.9541 22.1367" fill="#FF5A00"/>
<path d="M143.508 0.829956H142.007V33.6121H143.508V0.829956Z" fill="#FF5A00"/>
<path d="M172.835 0.821777H160.979V4.56632H172.835V0.821777Z" fill="#FF5A00"/>
<path d="M172.835 11.1185H160.979V14.8631H172.835V11.1185Z" fill="#FF5A00"/>
<path d="M157.234 4.56637V8.31091H160.979V4.56637H157.234Z" fill="#FF5A00"/>
<path d="M157.234 14.8631V22.3507H160.979V14.8631H157.234Z" fill="#FF5A00"/>
<path d="M172.835 4.56632V11.1185H176.579V4.56632H172.835Z" fill="#FF5A00"/>
<path d="M176.578 18.6061H157.234V22.3506H176.578V18.6061Z" fill="#FF5A00"/>
<path d="M195.922 18.6061H184.065V22.3506H195.922V18.6061Z" fill="#FF5A00"/>
<path d="M195.922 8.31091H180.322V12.0555H195.922V8.31091Z" fill="#FF5A00"/>
<path d="M184.067 18.6076V14.863H180.322V18.6076H184.067Z" fill="#FF5A00"/>
<path d="M184.065 12.0539V0.821777L180.321 0.821777V12.0539H184.065Z" fill="#FF5A00"/>
<path d="M199.666 18.6076V12.0554H195.922V18.6076H199.666Z" fill="#FF5A00"/>
<path d="M199.666 0.821777H180.322V4.56632H199.666V0.821777Z" fill="#FF5A00"/>
<path d="M156.939 26.0908H158.562L161.043 29.226H160.34L162.821 26.0908H164.444L161.163 30.2396L160.226 30.2485L156.936 26.0908H156.939ZM159.971 32.5324V29.4237H161.431V32.5324H159.971Z" fill="#FF5A00"/>
<path d="M168.217 32.0425L167.581 31.3211H172.546V32.5324H166.747V26.0908H172.501V27.3021H167.579L168.215 26.5807V32.0425H168.217ZM172.279 28.7524V29.8693H167.666V28.7524H172.279Z" fill="#FF5A00"/>
<path d="M179.481 26.0908L182.496 32.5324H180.941L178.304 26.6839H178.785L176.148 32.5324H174.593L177.608 26.0908H179.48H179.481ZM176.278 31.175V29.9903H180.744V31.175H176.278Z" fill="#FF5A00"/>
<path d="M186.057 28.9501H188.539C188.865 28.9501 189.125 28.8749 189.316 28.7229C189.508 28.5709 189.604 28.3614 189.604 28.0914C189.604 27.8214 189.508 27.6134 189.316 27.4644C189.125 27.3154 188.865 27.2416 188.539 27.2416H185.842L186.503 26.4951V32.5338H185.042V26.0923H188.71C189.179 26.0923 189.592 26.1764 189.946 26.346C190.302 26.5157 190.579 26.7488 190.78 27.0454C190.981 27.3434 191.081 27.6931 191.081 28.0929C191.081 28.4927 190.981 28.835 190.78 29.1316C190.579 29.4296 190.302 29.6627 189.946 29.8309C189.591 30.0006 189.179 30.0847 188.71 30.0847H186.056V28.9516L186.057 28.9501ZM187.174 29.5181H188.84L191.271 32.5324H189.561L187.174 29.5181Z" fill="#FF5A00"/>
<path d="M193.39 30.48H194.867C194.901 30.6984 194.997 30.8887 195.154 31.051C195.312 31.2148 195.523 31.3402 195.79 31.4287C196.056 31.5172 196.364 31.5615 196.714 31.5615C197.223 31.5615 197.626 31.4892 197.921 31.3431C198.216 31.1971 198.363 30.992 198.363 30.7294C198.363 30.5228 198.279 30.365 198.11 30.2528C197.94 30.1407 197.627 30.0596 197.17 30.0079L195.873 29.8619C195.036 29.7704 194.432 29.5742 194.057 29.2732C193.682 28.9722 193.495 28.5532 193.495 28.0147C193.495 27.5912 193.619 27.2298 193.868 26.9317C194.117 26.6337 194.468 26.4065 194.92 26.2486C195.373 26.0908 195.904 26.0126 196.518 26.0126C197.131 26.0126 197.643 26.0996 198.107 26.2752C198.57 26.4493 198.94 26.6927 199.215 27.0055C199.489 27.3183 199.638 27.6827 199.662 28.1002H198.185C198.157 27.9114 198.071 27.7462 197.931 27.606C197.791 27.4658 197.598 27.3566 197.351 27.2799C197.105 27.2032 196.816 27.1634 196.484 27.1634C196.021 27.1634 195.65 27.2327 195.376 27.3699C195.101 27.5071 194.964 27.7019 194.964 27.9542C194.964 28.1489 195.045 28.2994 195.209 28.4057C195.373 28.5119 195.661 28.5901 196.072 28.6417L197.421 28.8055C198.017 28.8689 198.49 28.9707 198.841 29.1109C199.194 29.2511 199.445 29.4384 199.597 29.673C199.749 29.9076 199.824 30.2056 199.824 30.5656C199.824 30.995 199.694 31.3712 199.433 31.6958C199.172 32.0189 198.808 32.2697 198.338 32.4467C197.869 32.6238 197.319 32.7123 196.689 32.7123C196.059 32.7123 195.483 32.6194 194.997 32.4335C194.51 32.2476 194.126 31.9864 193.846 31.6515C193.565 31.3166 193.413 30.9256 193.39 30.4786V30.48Z" fill="#FF5A00"/>
</svg>